<svg id="logosandtypes_com" xmlns="http://www.w3.org/2000/svg" viewBox="0 0 150 150.2"><path d="M0 .2h150v150H0V.2z" fill="none"/><g><linearGradient id="a" gradientUnits="userSpaceOnUse" x1="77.197" y1="22.2263" x2="89.5051" y2="22.2263" gradientTransform="translate(0 66)"><stop offset="0" stop-color="#0091d6"/><stop offset="1" stop-color="#00aeef"/></linearGradient><path fill="url(#a)" d="M77.2 70.5h12.3V106H77.2z"/><linearGradient id="b" gradientUnits="userSpaceOnUse" x1="53.6628" y1="69.2265" x2="87.1908" y2="69.2265" gradientTransform="translate(-41.46 19)"><stop offset="0" stop-color="#00aeef"/><stop offset="1" stop-color="#0091d6"/></linearGradient><path d="M12.2 70.5s-.1 9.8 8.6 21.6c2.3 3.2 5.1 6 8.2 8.4 4.8 3.6 10.7 5.6 16.7 5.5V70.5H12.2z" fill="url(#b)"/><path d="M90.4 13.2C64.9 13.2 44 34.1 44 59.5v76.1s10.9 1.1 24.4-10.7c8.6-7.4 10.5-14 10.5-17.1V59.5c.1-6.3 5.2-11.3 11.5-11.4 6.1 0 11 5.3 11 11.4.1 6-4.8 10.9-10.8 10.9h-1.9V106h1.7c25.5 0 46.4-21 46.4-46.4s-20.9-46.4-46.4-46.4z" fill="#00aeef"/></g></svg>